HIERARCHY
ROOT Hips
{
  OFFSET 177.927 92.4236 173.528
  CHANNELS 6 Xposition Yposition Zposition Zrotation Xrotation Yrotation
  JOINT ToSpine
  {
    OFFSET -2.69724 7.43032 -0.144315
    CHANNELS 3 Zrotation Xrotation Yrotation
    JOINT Spine
    {
      OFFSET -0.0310711 10.7595 1.96963
      CHANNELS 3 Zrotation Xrotation Yrotation
      JOINT Spine1
      {
        OFFSET 13.1342 3.43533 0.764692
        CHANNELS 3 Zrotation Xrotation Yrotation
        JOINT Neck
        {
          OFFSET 29.8703 7.82586 -0.130764
          CHANNELS 3 Zrotation Xrotation Yrotation
          JOINT Head
          {
            OFFSET 9.52751 0.295786 -0.907742
            CHANNELS 3 Zrotation Xrotation Yrotation
            End Site
            {
              OFFSET 16.4037 0.713936 2.7358
            }
          }
        }
        JOINT LeftShoulder
        {
          OFFSET 27.5574 4.95586 2.47156
          CHANNELS 3 Zrotation Xrotation Yrotation
          JOINT LeftArm
          {
            OFFSET 1.20734 -0.998971 20.1238
            CHANNELS 3 Zrotation Xrotation Yrotation
            JOINT LeftForeArm
            {
              OFFSET 26.8049 -0.0536703 -0.155908
              CHANNELS 3 Zrotation Xrotation Yrotation
              JOINT LeftHand
              {
                OFFSET 26.6817 0 0.320147
                CHANNELS 3 Zrotation Xrotation Yrotation
                End Site
                {
                  OFFSET 18.6119 0 0.382219
                }
              }
            }
          }
        }
        JOINT RightShoulder
        {
          OFFSET 27.5927 4.71444 -2.65209
          CHANNELS 3 Zrotation Xrotation Yrotation
          JOINT RightArm
          {
            OFFSET 2.83739 -1.17114 -18.7564
            CHANNELS 3 Zrotation Xrotation Yrotation
            JOINT RightForeArm
            {
              OFFSET 28.839 -0.0548439 1.22491
              CHANNELS 3 Zrotation Xrotation Yrotation
              JOINT RightHand
              {
                OFFSET 26.5114 0 -0.101894
                CHANNELS 3 Zrotation Xrotation Yrotation
                End Site
                {
                  OFFSET 18.2168 0 0
                }
              }
            }
          }
        }
      }
    }
  }
  JOINT LeftUpLeg
  {
    OFFSET -4.76168 -1.9167 -10.2353
    CHANNELS 3 Zrotation Xrotation Yrotation
    JOINT LeftLeg
    {
      OFFSET 2.55951 -42.0585 -8.02213
      CHANNELS 3 Zrotation Xrotation Yrotation
      JOINT LeftFoot
      {
        OFFSET 3.16357 -42.5282 -3.95426
        CHANNELS 3 Zrotation Xrotation Yrotation
        JOINT LeftToeBase
        {
          OFFSET 0.346054 -6.02161 12.8035
          CHANNELS 3 Zrotation Xrotation Yrotation
          End Site
          {
            OFFSET 0.134235 -1.35082 5.13018
          }
        }
      }
    }
  }
  JOINT RightUpLeg
  {
    OFFSET -4.94151 -1.41743 10.6446
    CHANNELS 3 Zrotation Xrotation Yrotation
    JOINT RightLeg
    {
      OFFSET -2.56294 -42.0364 -7.94377
      CHANNELS 3 Zrotation Xrotation Yrotation
      JOINT RightFoot
      {
        OFFSET -3.0952 -42.555 -4.02241
        CHANNELS 3 Zrotation Xrotation Yrotation
        JOINT RightToeBase
        {
          OFFSET -0.0828122 -6.13587 12.8035
          CHANNELS 3 Zrotation Xrotation Yrotation
          End Site
          {
            OFFSET -0.131328 -1.35082 5.13018
          }
        }
      }
    }
  }
}
MOTION
Frames:	6
Frame Time:	0.0333333
40.4208 98.4463 -284.508 -4.09951 -67.3751 -95.0852 -70.1915 0 88.8779 58.1744 68.1511 31.3329 8.45768 20.8702 -0.529351 -162.242 19.1475 176.805 -159.207 58.6823 -172.397 -0.325455 -15.7107 -35.5522 -73.6343 47.2128 -83.6053 9.55396 22.4629 -27.1919 0.420957 0.000575478 0.35866 -1.99693 6.12715 46.9789 -67.3602 -36.2932 88.7699 9.96374 -18.3588 29.2037 0.58676 0.00033112 0.0646653 -51.0364 -3.53056 98.325 -1.52876 22.79 -12.3151 4.40972 -9.64647 -1.04789 -1.40673 0.441075 5.83748 -52.9799 3.07378 82.1017 2.30223 17.7194 9.78889 -10.3114 -5.65334 1.41683 1.08253 -4.02634 -4.74268 
40.3788 98.4228 -284.421 -4.60679 -67.3218 -95.667 -70.1915 0 88.8779 57.2966 67.8371 31.9051 8.81607 20.6794 -0.371848 -161.796 18.9374 176.652 -158.686 58.4323 -172.487 -0.322027 -15.6823 -35.623 -72.1799 46.8723 -84.5477 10.0457 21.3633 -28.0259 0.420957 0.000575478 0.35866 -2.04685 6.31069 46.8007 -66.9327 -35.6149 89.8747 10.7176 -18.4943 30.8664 0.58676 0.00033112 0.0646653 -51.0706 -3.50691 98.3113 -1.54368 22.8215 -12.0839 4.62899 -9.88405 -1.06691 -1.42503 0.552452 5.65073 -52.8914 3.04008 81.9926 2.33673 17.9793 11.0769 -9.6195 -5.89912 1.3595 1.40168 -3.26237 -7.57742 
40.4042 98.4034 -284.286 -4.72842 -67.3029 -95.9008 -70.1915 0 88.8779 56.3451 67.5114 32.7022 9.30085 20.5453 -0.436661 -161.674 18.8621 176.926 -158.553 58.3654 -172.342 -0.267587 -15.4909 -35.4954 -72.534 46.5734 -84.9782 9.55119 21.0709 -27.6459 0.420957 0.000575478 0.35866 -2.03991 6.31157 46.6921 -66.619 -34.8755 91.1326 10.9033 -18.072 31.8785 0.58676 0.00033112 0.0646653 -50.858 -3.64675 98.3143 -1.45152 23.5349 -12.6632 3.41526 -10.3201 -1.0377 -1.77134 0.686261 6.95071 -52.8299 2.90348 82.0366 2.16657 18.2748 11.4884 -8.49227 -6.79072 1.27442 1.28269 -1.7061 -7.35482 
40.4155 98.3064 -284.166 -5.01782 -67.4584 -96.1522 -70.1915 0 88.8779 56.4123 67.6493 32.6381 9.39588 20.6649 -0.498686 -161.519 19.0105 176.728 -157.91 58.4418 -173.019 -0.3281 -15.7133 -35.5904 -71.274 46.29 -85.9775 9.68009 19.4491 -28.4232 0.420957 0.000575478 0.35866 -2.037 6.26208 46.898 -67.0222 -34.348 91.5234 10.8573 -17.2909 32.8728 0.58676 0.00033112 0.0646653 -51.0372 -3.71155 98.1751 -1.3083 23.53 -11.9436 4.87027 -10.4355 -1.09757 -1.55336 0.640158 6.04279 -52.827 3.03857 82.0888 1.9563 18.8801 12.0149 -8.42962 -7.41954 1.27282 1.51786 -1.32873 -9.06101 
40.4026 98.4075 -284.042 -4.96341 -67.3977 -96.0872 -70.1915 0 88.8779 56.1962 67.5626 32.826 9.5321 20.6163 -0.463181 -161.791 19.0644 177.307 -158.372 58.5344 -173.038 -0.377043 -15.8741 -35.7501 -71.642 46.0562 -85.8859 10.1604 19.2103 -29.0802 0.420957 0.000575478 0.35866 -2.01299 6.30822 46.3038 -67.2383 -34.6413 92.6484 10.967 -17.0943 33.4327 0.58676 0.00033112 0.0646653 -50.675 -3.75857 98.1678 -1.27849 24.6456 -14.0738 1.83336 -10.9308 -1.01645 -2.01546 -0.196714 10.3684 -52.7377 3.08264 82.2412 1.61552 19.0268 11.1043 -5.94652 -8.23283 1.13197 0.962463 0.803916 -6.30494 
40.4372 98.2892 -283.884 -4.96272 -67.4035 -96.0367 -70.1915 0 88.8779 56.2248 67.6301 32.687 9.42671 20.6778 -0.394696 -161.387 18.9159 177.368 -158.273 58.3767 -172.95 -0.318015 -15.685 -35.5329 -71.1547 45.9261 -86.6193 10.3289 18.387 -29.8535 0.420957 0.000575478 0.35866 -2.04592 6.30578 46.8114 -68.2061 -34.3151 92.6786 11.2052 -17.3233 33.6726 0.58676 0.00033112 0.0646653 -50.7293 -3.86218 97.7944 -1.12524 24.3713 -11.8096 4.76734 -10.7987 -1.10762 -1.40995 0.162787 6.54799 -52.6392 3.0598 82.0971 1.67562 19.505 11.4929 -7.23831 -8.46216 1.21061 1.19667 0.498651 -7.59305 
